<mxfile host="65bd71144e">
    <diagram id="rxY9WlwLN_OVzkIasNs6" name="System">
        <mxGraphModel dx="1006" dy="804" grid="1" gridSize="10" guides="1" tooltips="1" connect="1" arrows="1" fold="1" page="1" pageScale="1" pageWidth="850" pageHeight="1100" math="0" shadow="0">
            <root>
                <mxCell id="0"/>
                <mxCell id="1" parent="0"/>
                <mxCell id="Jy9FdeVfNQHREC3j2bAo-134" value="" style="rounded=1;whiteSpace=wrap;html=1;fillColor=none;" vertex="1" parent="1">
                    <mxGeometry x="120" y="40" width="560" height="1360" as="geometry"/>
                </mxCell>
                <mxCell id="105" style="edgeStyle=none;html=1;exitX=1;exitY=0.3333333333333333;exitDx=0;exitDy=0;exitPerimeter=0;entryX=0;entryY=0.5;entryDx=0;entryDy=0;" edge="1" parent="1" source="6" target="91">
                    <mxGeometry relative="1" as="geometry">
                        <Array as="points">
                            <mxPoint x="100" y="720"/>
                            <mxPoint x="100" y="900"/>
                        </Array>
                    </mxGeometry>
                </mxCell>
                <mxCell id="89" style="edgeStyle=none;html=1;exitX=1;exitY=0.3333333333333333;exitDx=0;exitDy=0;exitPerimeter=0;entryX=0;entryY=0.5;entryDx=0;entryDy=0;" edge="1" parent="1" source="7" target="58">
                    <mxGeometry relative="1" as="geometry"/>
                </mxCell>
                <mxCell id="8" value="Upload Files" style="ellipse;whiteSpace=wrap;html=1;" parent="1" vertex="1">
                    <mxGeometry x="490" y="220" width="140" height="80" as="geometry"/>
                </mxCell>
                <mxCell id="9" value="Choose Printer" style="ellipse;whiteSpace=wrap;html=1;" parent="1" vertex="1">
                    <mxGeometry x="170" y="220" width="140" height="80" as="geometry"/>
                </mxCell>
                <mxCell id="21" style="edgeStyle=none;html=1;entryX=0;entryY=0.3333333333333333;entryDx=0;entryDy=0;entryPerimeter=0;" parent="1" target="15" edge="1">
                    <mxGeometry relative="1" as="geometry">
                        <mxPoint x="500" y="400" as="sourcePoint"/>
                    </mxGeometry>
                </mxCell>
                <mxCell id="18" value="Specify Printing Properties" style="ellipse;whiteSpace=wrap;html=1;" parent="1" vertex="1">
                    <mxGeometry x="330" y="200" width="140" height="80" as="geometry"/>
                </mxCell>
                <mxCell id="22" value="include" style="html=1;verticalAlign=bottom;endArrow=open;dashed=1;endSize=8;exitX=0.5;exitY=0;exitDx=0;exitDy=0;entryX=1;entryY=1;entryDx=0;entryDy=0;" parent="1" source="72" target="9" edge="1">
                    <mxGeometry relative="1" as="geometry">
                        <mxPoint x="400" y="320" as="sourcePoint"/>
                        <mxPoint x="430" y="380" as="targetPoint"/>
                    </mxGeometry>
                </mxCell>
                <mxCell id="133" style="edgeStyle=none;html=1;exitX=1;exitY=0.3333333333333333;exitDx=0;exitDy=0;exitPerimeter=0;entryX=0;entryY=0.5;entryDx=0;entryDy=0;" edge="1" parent="1" source="2" target="59">
                    <mxGeometry relative="1" as="geometry">
                        <Array as="points">
                            <mxPoint x="100" y="400"/>
                            <mxPoint x="100" y="480"/>
                        </Array>
                    </mxGeometry>
                </mxCell>
                <mxCell id="2" value="Student" style="shape=umlActor;verticalLabelPosition=bottom;verticalAlign=top;html=1;" parent="1" vertex="1">
                    <mxGeometry x="40" y="380" width="30" height="60" as="geometry"/>
                </mxCell>
                <mxCell id="15" value="Printer" style="shape=umlActor;verticalLabelPosition=bottom;verticalAlign=top;html=1;" parent="1" vertex="1">
                    <mxGeometry x="770" y="380" width="30" height="60" as="geometry"/>
                </mxCell>
                <mxCell id="25" value="include" style="html=1;verticalAlign=bottom;endArrow=open;dashed=1;endSize=8;exitX=0.5;exitY=0;exitDx=0;exitDy=0;entryX=0;entryY=1;entryDx=0;entryDy=0;" parent="1" source="72" target="8" edge="1">
                    <mxGeometry relative="1" as="geometry">
                        <mxPoint x="400" y="320" as="sourcePoint"/>
                        <mxPoint x="400" y="450" as="targetPoint"/>
                    </mxGeometry>
                </mxCell>
                <mxCell id="26" value="include" style="html=1;verticalAlign=bottom;endArrow=open;dashed=1;endSize=8;exitX=0.5;exitY=0;exitDx=0;exitDy=0;entryX=0.5;entryY=1;entryDx=0;entryDy=0;" parent="1" source="72" target="18" edge="1">
                    <mxGeometry relative="1" as="geometry">
                        <mxPoint x="400" y="320" as="sourcePoint"/>
                        <mxPoint x="410" y="460" as="targetPoint"/>
                    </mxGeometry>
                </mxCell>
                <mxCell id="43" value="" style="endArrow=block;endSize=16;endFill=0;html=1;exitX=0.5;exitY=0;exitDx=0;exitDy=0;exitPerimeter=0;" parent="1" source="7" edge="1">
                    <mxGeometry width="160" relative="1" as="geometry">
                        <mxPoint x="-510" y="610" as="sourcePoint"/>
                        <mxPoint x="55" y="780" as="targetPoint"/>
                        <Array as="points"/>
                    </mxGeometry>
                </mxCell>
                <mxCell id="103" style="edgeStyle=none;html=1;exitX=1;exitY=0.5;exitDx=0;exitDy=0;entryX=0;entryY=0.3333333333333333;entryDx=0;entryDy=0;entryPerimeter=0;" edge="1" parent="1" target="15">
                    <mxGeometry relative="1" as="geometry">
                        <Array as="points">
                            <mxPoint x="704" y="720"/>
                            <mxPoint x="704" y="400"/>
                        </Array>
                        <mxPoint x="464" y="720" as="sourcePoint"/>
                        <mxPoint x="746" y="380" as="targetPoint"/>
                    </mxGeometry>
                </mxCell>
                <mxCell id="102" style="edgeStyle=none;html=1;exitX=1;exitY=0.5;exitDx=0;exitDy=0;entryX=0;entryY=0.3333333333333333;entryDx=0;entryDy=0;entryPerimeter=0;" edge="1" parent="1" source="58" target="60">
                    <mxGeometry relative="1" as="geometry">
                        <Array as="points">
                            <mxPoint x="720" y="1080"/>
                            <mxPoint x="720" y="520"/>
                        </Array>
                        <mxPoint x="492" y="1080" as="sourcePoint"/>
                        <mxPoint x="776" y="520" as="targetPoint"/>
                    </mxGeometry>
                </mxCell>
                <mxCell id="79" style="edgeStyle=none;html=1;exitX=1;exitY=0.5;exitDx=0;exitDy=0;entryX=0;entryY=0.3333333333333333;entryDx=0;entryDy=0;entryPerimeter=0;" edge="1" parent="1" source="59" target="60">
                    <mxGeometry relative="1" as="geometry">
                        <Array as="points">
                            <mxPoint x="720" y="480"/>
                            <mxPoint x="720" y="520"/>
                        </Array>
                    </mxGeometry>
                </mxCell>
                <mxCell id="60" value="BKPay" style="shape=umlActor;verticalLabelPosition=bottom;verticalAlign=top;html=1;" vertex="1" parent="1">
                    <mxGeometry x="770" y="500" width="30" height="60" as="geometry"/>
                </mxCell>
                <mxCell id="63" value="HCMUT_SSO" style="shape=umlActor;verticalLabelPosition=bottom;verticalAlign=top;html=1;" vertex="1" parent="1">
                    <mxGeometry x="770" y="100" width="30" height="60" as="geometry"/>
                </mxCell>
                <mxCell id="80" style="edgeStyle=none;html=1;exitX=1;exitY=0.5;exitDx=0;exitDy=0;entryX=0;entryY=0.3333333333333333;entryDx=0;entryDy=0;entryPerimeter=0;" edge="1" parent="1" source="64" target="63">
                    <mxGeometry relative="1" as="geometry"/>
                </mxCell>
                <mxCell id="104" style="edgeStyle=none;html=1;exitX=1;exitY=0.5;exitDx=0;exitDy=0;entryX=0;entryY=0.3333333333333333;entryDx=0;entryDy=0;entryPerimeter=0;" edge="1" parent="1" source="65" target="77">
                    <mxGeometry relative="1" as="geometry">
                        <Array as="points">
                            <mxPoint x="690" y="600"/>
                            <mxPoint x="690" y="840"/>
                        </Array>
                    </mxGeometry>
                </mxCell>
                <mxCell id="88" style="edgeStyle=none;html=1;exitX=1;exitY=0.5;exitDx=0;exitDy=0;entryX=0;entryY=0.3333333333333333;entryDx=0;entryDy=0;entryPerimeter=0;" edge="1" parent="1" source="66" target="77">
                    <mxGeometry relative="1" as="geometry"/>
                </mxCell>
                <mxCell id="67" value="Generate Printing Report" style="ellipse;whiteSpace=wrap;html=1;" vertex="1" parent="1">
                    <mxGeometry x="330" y="920" width="140" height="80" as="geometry"/>
                </mxCell>
                <mxCell id="71" value="" style="shape=ellipse;container=1;horizontal=1;horizontalStack=0;resizeParent=1;resizeParentMax=0;resizeLast=0;html=1;dashed=0;collapsible=0;" vertex="1" parent="1">
                    <mxGeometry x="300" y="340" width="200" height="120" as="geometry"/>
                </mxCell>
                <mxCell id="72" value="&lt;span style=&quot;&quot;&gt;Print Documents&lt;/span&gt;" style="html=1;strokeColor=none;fillColor=none;align=center;verticalAlign=middle;rotatable=0;" vertex="1" parent="71">
                    <mxGeometry width="200" height="30" as="geometry"/>
                </mxCell>
                <mxCell id="73" value="" style="line;strokeWidth=1;fillColor=none;rotatable=0;labelPosition=right;points=[];portConstraint=eastwest;dashed=0;resizeWidth=1;" vertex="1" parent="71">
                    <mxGeometry x="10" y="30" width="180" height="10" as="geometry"/>
                </mxCell>
                <mxCell id="74" value="extension points" style="text;html=1;align=center;verticalAlign=middle;rotatable=0;fillColor=none;strokeColor=none;" vertex="1" parent="71">
                    <mxGeometry y="40" width="200" height="30" as="geometry"/>
                </mxCell>
                <mxCell id="75" value="&lt;span style=&quot;text-align: center;&quot;&gt;Buy Printing Pages&lt;/span&gt;" style="text;html=1;align=left;verticalAlign=middle;rotatable=0;spacingLeft=25;fillColor=none;strokeColor=none;" vertex="1" parent="71">
                    <mxGeometry y="70" width="200" height="30" as="geometry"/>
                </mxCell>
                <mxCell id="76" value="extend" style="html=1;verticalAlign=bottom;endArrow=open;dashed=1;endSize=8;exitX=0.5;exitY=1;exitDx=0;exitDy=0;entryX=0.5;entryY=1;entryDx=0;entryDy=0;" edge="1" parent="1" source="59" target="71">
                    <mxGeometry x="-0.3333" relative="1" as="geometry">
                        <mxPoint x="280" y="500" as="sourcePoint"/>
                        <mxPoint x="120" y="500" as="targetPoint"/>
                        <mxPoint x="1" as="offset"/>
                        <Array as="points">
                            <mxPoint x="560" y="540"/>
                            <mxPoint x="400" y="540"/>
                        </Array>
                    </mxGeometry>
                </mxCell>
                <mxCell id="94" style="edgeStyle=none;html=1;entryX=1;entryY=0.5;entryDx=0;entryDy=0;exitX=0.5;exitY=0.5;exitDx=0;exitDy=0;exitPerimeter=0;" edge="1" parent="1" source="77" target="67">
                    <mxGeometry relative="1" as="geometry">
                        <Array as="points">
                            <mxPoint x="785" y="960"/>
                            <mxPoint x="700" y="960"/>
                            <mxPoint x="590" y="960"/>
                        </Array>
                        <mxPoint x="770" y="902" as="sourcePoint"/>
                        <mxPoint x="470" y="982" as="targetPoint"/>
                    </mxGeometry>
                </mxCell>
                <mxCell id="82" value="Add Printer" style="ellipse;whiteSpace=wrap;html=1;" vertex="1" parent="1">
                    <mxGeometry x="490" y="620" width="140" height="80" as="geometry"/>
                </mxCell>
                <mxCell id="59" value="Buy Printing Pages" style="ellipse;whiteSpace=wrap;html=1;" vertex="1" parent="1">
                    <mxGeometry x="490" y="440" width="140" height="80" as="geometry"/>
                </mxCell>
                <mxCell id="64" value="Login" style="ellipse;whiteSpace=wrap;html=1;" vertex="1" parent="1">
                    <mxGeometry x="330" y="80" width="140" height="80" as="geometry"/>
                </mxCell>
                <mxCell id="83" value="Enable/Disable Printer" style="ellipse;whiteSpace=wrap;html=1;" vertex="1" parent="1">
                    <mxGeometry x="490" y="740" width="140" height="80" as="geometry"/>
                </mxCell>
                <mxCell id="90" value="Store Printing Report" style="ellipse;whiteSpace=wrap;html=1;" vertex="1" parent="1">
                    <mxGeometry x="500" y="980" width="140" height="80" as="geometry"/>
                </mxCell>
                <mxCell id="66" value="Manage SSPS Configuration" style="ellipse;whiteSpace=wrap;html=1;" vertex="1" parent="1">
                    <mxGeometry x="330" y="800" width="140" height="80" as="geometry"/>
                </mxCell>
                <mxCell id="111" style="edgeStyle=none;html=1;exitX=1;exitY=0.3333333333333333;exitDx=0;exitDy=0;exitPerimeter=0;entryX=0;entryY=0.5;entryDx=0;entryDy=0;" edge="1" parent="1" source="7" target="108">
                    <mxGeometry relative="1" as="geometry">
                        <Array as="points">
                            <mxPoint x="100" y="1080"/>
                            <mxPoint x="100" y="1320"/>
                        </Array>
                    </mxGeometry>
                </mxCell>
                <mxCell id="106" style="edgeStyle=none;html=1;exitX=1;exitY=0.5;exitDx=0;exitDy=0;entryX=0;entryY=0.3333333333333333;entryDx=0;entryDy=0;entryPerimeter=0;" edge="1" parent="1" source="91" target="77">
                    <mxGeometry relative="1" as="geometry">
                        <mxPoint x="730" y="840" as="targetPoint"/>
                        <Array as="points">
                            <mxPoint x="690" y="900"/>
                            <mxPoint x="690" y="840"/>
                        </Array>
                    </mxGeometry>
                </mxCell>
                <mxCell id="92" value="include" style="html=1;verticalAlign=bottom;endArrow=open;dashed=1;endSize=8;exitX=1;exitY=1;exitDx=0;exitDy=0;entryX=0;entryY=0.5;entryDx=0;entryDy=0;" edge="1" parent="1" source="67" target="90">
                    <mxGeometry relative="1" as="geometry">
                        <mxPoint x="459.4974746830585" y="758.2842712474619" as="sourcePoint"/>
                        <mxPoint x="500" y="790" as="targetPoint"/>
                        <mxPoint as="offset"/>
                    </mxGeometry>
                </mxCell>
                <mxCell id="77" value="HCMUT_SSPS" style="shape=umlActor;verticalLabelPosition=bottom;verticalAlign=top;html=1;" vertex="1" parent="1">
                    <mxGeometry x="770" y="820" width="30" height="60" as="geometry"/>
                </mxCell>
                <mxCell id="96" style="edgeStyle=none;html=1;exitX=1;exitY=0.3333333333333333;exitDx=0;exitDy=0;exitPerimeter=0;entryX=0;entryY=0.5;entryDx=0;entryDy=0;" edge="1" parent="1" source="2" target="64">
                    <mxGeometry relative="1" as="geometry">
                        <mxPoint x="80" y="410" as="sourcePoint"/>
                        <mxPoint x="310" y="410" as="targetPoint"/>
                        <Array as="points">
                            <mxPoint x="100" y="400"/>
                            <mxPoint x="100" y="120"/>
                        </Array>
                    </mxGeometry>
                </mxCell>
                <mxCell id="97" style="edgeStyle=none;html=1;exitX=1;exitY=0.3333333333333333;exitDx=0;exitDy=0;exitPerimeter=0;entryX=0;entryY=0.5;entryDx=0;entryDy=0;" edge="1" parent="1" source="2" target="68">
                    <mxGeometry relative="1" as="geometry">
                        <mxPoint x="80" y="410" as="sourcePoint"/>
                        <mxPoint x="310" y="410" as="targetPoint"/>
                        <Array as="points">
                            <mxPoint x="100" y="400"/>
                            <mxPoint x="100" y="540"/>
                        </Array>
                    </mxGeometry>
                </mxCell>
                <mxCell id="98" style="edgeStyle=none;html=1;exitX=1;exitY=0.3333333333333333;exitDx=0;exitDy=0;exitPerimeter=0;entryX=0;entryY=0.5;entryDx=0;entryDy=0;" edge="1" parent="1" source="6" target="56">
                    <mxGeometry relative="1" as="geometry">
                        <mxPoint x="80" y="410" as="sourcePoint"/>
                        <mxPoint x="310" y="410" as="targetPoint"/>
                    </mxGeometry>
                </mxCell>
                <mxCell id="99" style="edgeStyle=none;html=1;exitX=1;exitY=0.3333333333333333;exitDx=0;exitDy=0;exitPerimeter=0;entryX=0;entryY=0.5;entryDx=0;entryDy=0;" edge="1" parent="1" source="6" target="65">
                    <mxGeometry relative="1" as="geometry">
                        <mxPoint x="80" y="730" as="sourcePoint"/>
                        <mxPoint x="340" y="730" as="targetPoint"/>
                        <Array as="points">
                            <mxPoint x="100" y="720"/>
                            <mxPoint x="100" y="600"/>
                        </Array>
                    </mxGeometry>
                </mxCell>
                <mxCell id="100" style="edgeStyle=none;html=1;exitX=1;exitY=0.3333333333333333;exitDx=0;exitDy=0;exitPerimeter=0;entryX=0;entryY=0.5;entryDx=0;entryDy=0;" edge="1" parent="1" source="6" target="66">
                    <mxGeometry relative="1" as="geometry">
                        <mxPoint x="80" y="730" as="sourcePoint"/>
                        <mxPoint x="340" y="730" as="targetPoint"/>
                        <Array as="points">
                            <mxPoint x="100" y="720"/>
                            <mxPoint x="100" y="840"/>
                        </Array>
                    </mxGeometry>
                </mxCell>
                <mxCell id="107" value="Manage SPSO" style="ellipse;whiteSpace=wrap;html=1;" vertex="1" parent="1">
                    <mxGeometry x="330" y="1160" width="140" height="80" as="geometry"/>
                </mxCell>
                <mxCell id="58" value="Manage Payment" style="ellipse;whiteSpace=wrap;html=1;" vertex="1" parent="1">
                    <mxGeometry x="330" y="1040" width="140" height="80" as="geometry"/>
                </mxCell>
                <mxCell id="56" value="Manage Printers" style="ellipse;whiteSpace=wrap;html=1;" vertex="1" parent="1">
                    <mxGeometry x="330" y="680" width="140" height="80" as="geometry"/>
                </mxCell>
                <mxCell id="65" value="View Students Printing History" style="ellipse;whiteSpace=wrap;html=1;" vertex="1" parent="1">
                    <mxGeometry x="330" y="560" width="140" height="80" as="geometry"/>
                </mxCell>
                <mxCell id="6" value="SPSO" style="shape=umlActor;verticalLabelPosition=bottom;verticalAlign=top;html=1;" parent="1" vertex="1">
                    <mxGeometry x="40" y="700" width="30" height="60" as="geometry"/>
                </mxCell>
                <mxCell id="91" value="View Printing Report" style="ellipse;whiteSpace=wrap;html=1;" vertex="1" parent="1">
                    <mxGeometry x="170" y="860" width="140" height="80" as="geometry"/>
                </mxCell>
                <mxCell id="108" value="Manage Student" style="ellipse;whiteSpace=wrap;html=1;" vertex="1" parent="1">
                    <mxGeometry x="330" y="1280" width="140" height="80" as="geometry"/>
                </mxCell>
                <mxCell id="109" style="edgeStyle=none;html=1;exitX=1;exitY=0.3333333333333333;exitDx=0;exitDy=0;exitPerimeter=0;entryX=0;entryY=0.5;entryDx=0;entryDy=0;" edge="1" parent="1" source="7" target="107">
                    <mxGeometry relative="1" as="geometry">
                        <mxPoint x="80" y="1090" as="sourcePoint"/>
                        <mxPoint x="340" y="1090" as="targetPoint"/>
                        <Array as="points">
                            <mxPoint x="100" y="1080"/>
                            <mxPoint x="100" y="1200"/>
                        </Array>
                    </mxGeometry>
                </mxCell>
                <mxCell id="7" value="Administrator" style="shape=umlActor;verticalLabelPosition=bottom;verticalAlign=top;html=1;" parent="1" vertex="1">
                    <mxGeometry x="40" y="1060" width="30" height="60" as="geometry"/>
                </mxCell>
                <mxCell id="113" value="Calculate Revenue" style="ellipse;whiteSpace=wrap;html=1;" vertex="1" parent="1">
                    <mxGeometry x="500" y="1100" width="140" height="80" as="geometry"/>
                </mxCell>
                <mxCell id="119" value="View printing pages left" style="ellipse;whiteSpace=wrap;html=1;" vertex="1" parent="1">
                    <mxGeometry x="130" y="410" width="140" height="60" as="geometry"/>
                </mxCell>
                <mxCell id="19" style="edgeStyle=none;html=1;exitX=1;exitY=0.3333333333333333;exitDx=0;exitDy=0;exitPerimeter=0;" parent="1" source="2" target="71" edge="1">
                    <mxGeometry relative="1" as="geometry">
                        <mxPoint x="330.000000000005" y="360" as="targetPoint"/>
                    </mxGeometry>
                </mxCell>
                <mxCell id="68" value="View Personal Printing History" style="ellipse;whiteSpace=wrap;html=1;" vertex="1" parent="1">
                    <mxGeometry x="170" y="500" width="140" height="80" as="geometry"/>
                </mxCell>
                <mxCell id="121" value="extend" style="html=1;verticalAlign=bottom;endArrow=open;dashed=1;endSize=8;exitX=0;exitY=0.5;exitDx=0;exitDy=0;entryX=1;entryY=0;entryDx=0;entryDy=0;" edge="1" parent="1" source="82" target="56">
                    <mxGeometry relative="1" as="geometry">
                        <mxPoint x="480" y="670" as="sourcePoint"/>
                        <mxPoint x="320" y="670" as="targetPoint"/>
                        <mxPoint as="offset"/>
                    </mxGeometry>
                </mxCell>
                <mxCell id="122" value="extend" style="html=1;verticalAlign=bottom;endArrow=open;dashed=1;endSize=8;exitX=0;exitY=0.5;exitDx=0;exitDy=0;" edge="1" parent="1" source="83" target="56">
                    <mxGeometry x="-0.0651" y="17" relative="1" as="geometry">
                        <mxPoint x="500" y="670" as="sourcePoint"/>
                        <mxPoint x="459.4974746830585" y="701.7157287525381" as="targetPoint"/>
                        <mxPoint y="-1" as="offset"/>
                    </mxGeometry>
                </mxCell>
                <mxCell id="124" value="extend" style="html=1;verticalAlign=bottom;endArrow=open;dashed=1;endSize=8;exitX=0;exitY=0.5;exitDx=0;exitDy=0;entryX=1;entryY=1;entryDx=0;entryDy=0;" edge="1" parent="1" source="113" target="58">
                    <mxGeometry x="-0.3865" y="12" relative="1" as="geometry">
                        <mxPoint x="484.44000000000005" y="1159.63" as="sourcePoint"/>
                        <mxPoint x="439.99539614191684" y="1130.0002640946113" as="targetPoint"/>
                        <mxPoint as="offset"/>
                    </mxGeometry>
                </mxCell>
                <mxCell id="127" value="Privilege Allocations" style="ellipse;whiteSpace=wrap;html=1;" vertex="1" parent="1">
                    <mxGeometry x="500" y="1220" width="140" height="80" as="geometry"/>
                </mxCell>
                <mxCell id="128" value="View/Add/Enable/Disable Student Account" style="ellipse;whiteSpace=wrap;html=1;" vertex="1" parent="1">
                    <mxGeometry x="160" y="1220" width="140" height="80" as="geometry"/>
                </mxCell>
                <mxCell id="129" value="extend" style="html=1;verticalAlign=bottom;endArrow=open;dashed=1;endSize=8;exitX=-0.017;exitY=0.435;exitDx=0;exitDy=0;entryX=1;entryY=1;entryDx=0;entryDy=0;exitPerimeter=0;" edge="1" parent="1" source="127" target="107">
                    <mxGeometry x="-0.3865" y="12" relative="1" as="geometry">
                        <mxPoint x="510" y="1140" as="sourcePoint"/>
                        <mxPoint x="459.4974746830585" y="1118.284271247462" as="targetPoint"/>
                        <mxPoint as="offset"/>
                    </mxGeometry>
                </mxCell>
                <mxCell id="132" value="include" style="html=1;verticalAlign=bottom;endArrow=open;dashed=1;endSize=8;exitX=0;exitY=0;exitDx=0;exitDy=0;entryX=1;entryY=0.5;entryDx=0;entryDy=0;" edge="1" parent="1" source="108" target="128">
                    <mxGeometry relative="1" as="geometry">
                        <mxPoint x="487.2232567300716" y="1283.4401038884857" as="sourcePoint"/>
                        <mxPoint x="528.0000000000005" y="1315.0000000000002" as="targetPoint"/>
                        <mxPoint as="offset"/>
                        <Array as="points"/>
                    </mxGeometry>
                </mxCell>
                <mxCell id="z7eWb2TsPnCCRW73bat6-134" value="extend" style="html=1;verticalAlign=bottom;endArrow=open;dashed=1;endSize=8;exitX=1;exitY=0.5;exitDx=0;exitDy=0;entryX=0;entryY=0;entryDx=0;entryDy=0;" edge="1" parent="1" source="68" target="65">
                    <mxGeometry relative="1" as="geometry">
                        <mxPoint x="500" y="670" as="sourcePoint"/>
                        <mxPoint x="459.28818583184784" y="701.5966386731725" as="targetPoint"/>
                        <mxPoint as="offset"/>
                    </mxGeometry>
                </mxCell>
                <mxCell id="z7eWb2TsPnCCRW73bat6-135" value="extend" style="html=1;verticalAlign=bottom;endArrow=open;dashed=1;endSize=8;entryX=0.5;entryY=0;entryDx=0;entryDy=0;" edge="1" parent="1" target="68">
                    <mxGeometry relative="1" as="geometry">
                        <mxPoint x="200" y="470" as="sourcePoint"/>
                        <mxPoint x="360.5025253169417" y="581.7157287525381" as="targetPoint"/>
                        <mxPoint as="offset"/>
                    </mxGeometry>
                </mxCell>
            </root>
        </mxGraphModel>
    </diagram>
    <diagram id="9YGToSutav_8-7nSSWgZ" name="Print Documents">
        <mxGraphModel dx="880" dy="-396" grid="1" gridSize="10" guides="1" tooltips="1" connect="1" arrows="1" fold="1" page="1" pageScale="1" pageWidth="850" pageHeight="1100" math="0" shadow="0">
            <root>
                <mxCell id="0"/>
                <mxCell id="1" parent="0"/>
                <mxCell id="-KRwLj1AghcuRzSM5pnS-1" value="Upload Files" style="ellipse;whiteSpace=wrap;html=1;" vertex="1" parent="1">
                    <mxGeometry x="490" y="1340" width="140" height="80" as="geometry"/>
                </mxCell>
                <mxCell id="-KRwLj1AghcuRzSM5pnS-20" value="extend" style="html=1;verticalAlign=bottom;endArrow=open;dashed=1;endSize=8;exitX=0.5;exitY=0;exitDx=0;exitDy=0;entryX=0.5;entryY=1;entryDx=0;entryDy=0;" edge="1" parent="1" source="-KRwLj1AghcuRzSM5pnS-18" target="-KRwLj1AghcuRzSM5pnS-12">
                    <mxGeometry relative="1" as="geometry">
                        <mxPoint x="-310" y="1670" as="sourcePoint"/>
                        <mxPoint x="-460.0000000000002" y="1670" as="targetPoint"/>
                        <mxPoint as="offset"/>
                    </mxGeometry>
                </mxCell>
                <mxCell id="-KRwLj1AghcuRzSM5pnS-21" value="" style="rounded=1;whiteSpace=wrap;html=1;fillColor=none;" vertex="1" parent="1">
                    <mxGeometry x="140" y="1300" width="520" height="480" as="geometry"/>
                </mxCell>
                <mxCell id="-KRwLj1AghcuRzSM5pnS-2" value="Choose Printer" style="ellipse;whiteSpace=wrap;html=1;" vertex="1" parent="1">
                    <mxGeometry x="170" y="1340" width="140" height="80" as="geometry"/>
                </mxCell>
                <mxCell id="-KRwLj1AghcuRzSM5pnS-3" style="edgeStyle=none;html=1;entryX=0;entryY=0.3333333333333333;entryDx=0;entryDy=0;entryPerimeter=0;" edge="1" parent="1" target="-KRwLj1AghcuRzSM5pnS-8">
                    <mxGeometry relative="1" as="geometry">
                        <mxPoint x="500" y="1520" as="sourcePoint"/>
                    </mxGeometry>
                </mxCell>
                <mxCell id="-KRwLj1AghcuRzSM5pnS-4" value="Specify Printing Properties" style="ellipse;whiteSpace=wrap;html=1;" vertex="1" parent="1">
                    <mxGeometry x="330" y="1320" width="140" height="80" as="geometry"/>
                </mxCell>
                <mxCell id="-KRwLj1AghcuRzSM5pnS-5" value="include" style="html=1;verticalAlign=bottom;endArrow=open;dashed=1;endSize=8;exitX=0.5;exitY=0;exitDx=0;exitDy=0;entryX=1;entryY=1;entryDx=0;entryDy=0;" edge="1" parent="1" source="-KRwLj1AghcuRzSM5pnS-13" target="-KRwLj1AghcuRzSM5pnS-2">
                    <mxGeometry relative="1" as="geometry">
                        <mxPoint x="400" y="1440" as="sourcePoint"/>
                        <mxPoint x="430" y="1500" as="targetPoint"/>
                    </mxGeometry>
                </mxCell>
                <mxCell id="-KRwLj1AghcuRzSM5pnS-6" style="edgeStyle=none;html=1;exitX=1;exitY=0.3333333333333333;exitDx=0;exitDy=0;exitPerimeter=0;entryX=0;entryY=0.5;entryDx=0;entryDy=0;" edge="1" parent="1" source="-KRwLj1AghcuRzSM5pnS-7" target="-KRwLj1AghcuRzSM5pnS-18">
                    <mxGeometry relative="1" as="geometry">
                        <Array as="points">
                            <mxPoint x="80" y="1520"/>
                            <mxPoint x="80" y="1720"/>
                        </Array>
                    </mxGeometry>
                </mxCell>
                <mxCell id="-KRwLj1AghcuRzSM5pnS-7" value="Student" style="shape=umlActor;verticalLabelPosition=bottom;verticalAlign=top;html=1;" vertex="1" parent="1">
                    <mxGeometry x="40" y="1500" width="30" height="60" as="geometry"/>
                </mxCell>
                <mxCell id="-KRwLj1AghcuRzSM5pnS-8" value="Printer" style="shape=umlActor;verticalLabelPosition=bottom;verticalAlign=top;html=1;" vertex="1" parent="1">
                    <mxGeometry x="730" y="1500" width="30" height="60" as="geometry"/>
                </mxCell>
                <mxCell id="-KRwLj1AghcuRzSM5pnS-9" value="include" style="html=1;verticalAlign=bottom;endArrow=open;dashed=1;endSize=8;exitX=0.5;exitY=0;exitDx=0;exitDy=0;entryX=0;entryY=1;entryDx=0;entryDy=0;" edge="1" parent="1" source="-KRwLj1AghcuRzSM5pnS-13" target="-KRwLj1AghcuRzSM5pnS-1">
                    <mxGeometry relative="1" as="geometry">
                        <mxPoint x="400" y="1440" as="sourcePoint"/>
                        <mxPoint x="400" y="1570" as="targetPoint"/>
                    </mxGeometry>
                </mxCell>
                <mxCell id="-KRwLj1AghcuRzSM5pnS-10" value="include" style="html=1;verticalAlign=bottom;endArrow=open;dashed=1;endSize=8;exitX=0.5;exitY=0;exitDx=0;exitDy=0;entryX=0.5;entryY=1;entryDx=0;entryDy=0;" edge="1" parent="1" source="-KRwLj1AghcuRzSM5pnS-13" target="-KRwLj1AghcuRzSM5pnS-4">
                    <mxGeometry relative="1" as="geometry">
                        <mxPoint x="400" y="1440" as="sourcePoint"/>
                        <mxPoint x="410" y="1580" as="targetPoint"/>
                    </mxGeometry>
                </mxCell>
                <mxCell id="-KRwLj1AghcuRzSM5pnS-11" value="BKPay" style="shape=umlActor;verticalLabelPosition=bottom;verticalAlign=top;html=1;" vertex="1" parent="1">
                    <mxGeometry x="730" y="1700" width="30" height="60" as="geometry"/>
                </mxCell>
                <mxCell id="-KRwLj1AghcuRzSM5pnS-12" value="" style="shape=ellipse;container=1;horizontal=1;horizontalStack=0;resizeParent=1;resizeParentMax=0;resizeLast=0;html=1;dashed=0;collapsible=0;" vertex="1" parent="1">
                    <mxGeometry x="300" y="1460" width="200" height="120" as="geometry"/>
                </mxCell>
                <mxCell id="-KRwLj1AghcuRzSM5pnS-13" value="&lt;span style=&quot;&quot;&gt;Print Documents&lt;/span&gt;" style="html=1;strokeColor=none;fillColor=none;align=center;verticalAlign=middle;rotatable=0;" vertex="1" parent="-KRwLj1AghcuRzSM5pnS-12">
                    <mxGeometry width="200" height="30" as="geometry"/>
                </mxCell>
                <mxCell id="-KRwLj1AghcuRzSM5pnS-14" value="" style="line;strokeWidth=1;fillColor=none;rotatable=0;labelPosition=right;points=[];portConstraint=eastwest;dashed=0;resizeWidth=1;" vertex="1" parent="-KRwLj1AghcuRzSM5pnS-12">
                    <mxGeometry x="10" y="30" width="180" height="10" as="geometry"/>
                </mxCell>
                <mxCell id="-KRwLj1AghcuRzSM5pnS-15" value="extension points" style="text;html=1;align=center;verticalAlign=middle;rotatable=0;fillColor=none;strokeColor=none;" vertex="1" parent="-KRwLj1AghcuRzSM5pnS-12">
                    <mxGeometry y="40" width="200" height="30" as="geometry"/>
                </mxCell>
                <mxCell id="-KRwLj1AghcuRzSM5pnS-16" value="&lt;span style=&quot;text-align: center;&quot;&gt;Buy Printing Pages&lt;/span&gt;" style="text;html=1;align=left;verticalAlign=middle;rotatable=0;spacingLeft=25;fillColor=none;strokeColor=none;" vertex="1" parent="-KRwLj1AghcuRzSM5pnS-12">
                    <mxGeometry y="70" width="200" height="30" as="geometry"/>
                </mxCell>
                <mxCell id="-KRwLj1AghcuRzSM5pnS-17" style="edgeStyle=none;html=1;exitX=1;exitY=0.5;exitDx=0;exitDy=0;entryX=0;entryY=0.3333333333333333;entryDx=0;entryDy=0;entryPerimeter=0;" edge="1" parent="1" source="-KRwLj1AghcuRzSM5pnS-18" target="-KRwLj1AghcuRzSM5pnS-11">
                    <mxGeometry relative="1" as="geometry"/>
                </mxCell>
                <mxCell id="-KRwLj1AghcuRzSM5pnS-18" value="Buy Printing Pages" style="ellipse;whiteSpace=wrap;html=1;" vertex="1" parent="1">
                    <mxGeometry x="330" y="1680" width="140" height="80" as="geometry"/>
                </mxCell>
                <mxCell id="-KRwLj1AghcuRzSM5pnS-19" style="edgeStyle=none;html=1;exitX=1;exitY=0.3333333333333333;exitDx=0;exitDy=0;exitPerimeter=0;" edge="1" parent="1" source="-KRwLj1AghcuRzSM5pnS-7" target="-KRwLj1AghcuRzSM5pnS-12">
                    <mxGeometry relative="1" as="geometry">
                        <mxPoint x="330.000000000005" y="1480" as="targetPoint"/>
                    </mxGeometry>
                </mxCell>
            </root>
        </mxGraphModel>
    </diagram>
    <diagram id="U0W11r07Au975HFdBn_z" name="Login">
        <mxGraphModel dx="587" dy="469" grid="1" gridSize="10" guides="1" tooltips="1" connect="1" arrows="1" fold="1" page="1" pageScale="1" pageWidth="850" pageHeight="1100" math="0" shadow="0">
            <root>
                <mxCell id="0"/>
                <mxCell id="1" parent="0"/>
                <mxCell id="0jEQ4K2evg_f3bF1TvLU-1" value="" style="rounded=1;whiteSpace=wrap;html=1;fillColor=none;" vertex="1" parent="1">
                    <mxGeometry x="240" y="80" width="360" height="280" as="geometry"/>
                </mxCell>
                <mxCell id="J3IEcjRrBOwC5aj0iMPd-2" style="edgeStyle=none;html=1;exitX=1;exitY=0.3333333333333333;exitDx=0;exitDy=0;exitPerimeter=0;entryX=0;entryY=0.5;entryDx=0;entryDy=0;endArrow=classic;endFill=1;" edge="1" parent="1" source="pAw-ADSLUiAoPddI6pAF-12" target="pAw-ADSLUiAoPddI6pAF-14">
                    <mxGeometry relative="1" as="geometry">
                        <Array as="points">
                            <mxPoint x="220" y="161"/>
                            <mxPoint x="220" y="240"/>
                        </Array>
                    </mxGeometry>
                </mxCell>
                <mxCell id="pAw-ADSLUiAoPddI6pAF-12" value="Student" style="shape=umlActor;verticalLabelPosition=bottom;verticalAlign=top;html=1;" vertex="1" parent="1">
                    <mxGeometry x="160" y="140" width="30" height="62" as="geometry"/>
                </mxCell>
                <mxCell id="J3IEcjRrBOwC5aj0iMPd-3" style="edgeStyle=none;html=1;exitX=1;exitY=0.5;exitDx=0;exitDy=0;entryX=0;entryY=0.3333333333333333;entryDx=0;entryDy=0;entryPerimeter=0;endArrow=classic;endFill=1;" edge="1" parent="1" source="pAw-ADSLUiAoPddI6pAF-14" target="J3IEcjRrBOwC5aj0iMPd-1">
                    <mxGeometry relative="1" as="geometry"/>
                </mxCell>
                <mxCell id="pAw-ADSLUiAoPddI6pAF-14" value="Login" style="ellipse;whiteSpace=wrap;html=1;" vertex="1" parent="1">
                    <mxGeometry x="290" y="199" width="140" height="80" as="geometry"/>
                </mxCell>
                <mxCell id="J3IEcjRrBOwC5aj0iMPd-1" value="HCMUT_SSO" style="shape=umlActor;verticalLabelPosition=bottom;verticalAlign=top;html=1;" vertex="1" parent="1">
                    <mxGeometry x="650" y="217" width="30" height="62" as="geometry"/>
                </mxCell>
                <mxCell id="fIcFixNAyECaVGGKwajv-1" value="Change Password&amp;nbsp;" style="ellipse;whiteSpace=wrap;html=1;" vertex="1" parent="1">
                    <mxGeometry x="420" y="100" width="140" height="80" as="geometry"/>
                </mxCell>
                <mxCell id="21wwVRf7snCuCDkr_e9z-2" value="extend" style="html=1;verticalAlign=bottom;endArrow=open;dashed=1;endSize=8;exitX=0;exitY=1;exitDx=0;exitDy=0;entryX=1;entryY=0;entryDx=0;entryDy=0;" edge="1" parent="1" source="fIcFixNAyECaVGGKwajv-1" target="pAw-ADSLUiAoPddI6pAF-14">
                    <mxGeometry relative="1" as="geometry">
                        <mxPoint x="430.0000000000002" y="179.9999999999999" as="sourcePoint"/>
                        <mxPoint x="270.0000000000002" y="179.9999999999999" as="targetPoint"/>
                        <mxPoint as="offset"/>
                    </mxGeometry>
                </mxCell>
                <mxCell id="tjYEqISgnYH4C-8hyxrw-2" style="edgeStyle=none;html=1;exitX=1;exitY=0.3333333333333333;exitDx=0;exitDy=0;exitPerimeter=0;entryX=0;entryY=0.5;entryDx=0;entryDy=0;" edge="1" parent="1" source="ggEKf-x5aFvkU_zhfuhS-1" target="pAw-ADSLUiAoPddI6pAF-14">
                    <mxGeometry relative="1" as="geometry">
                        <Array as="points">
                            <mxPoint x="220" y="280"/>
                            <mxPoint x="220" y="240"/>
                        </Array>
                    </mxGeometry>
                </mxCell>
                <mxCell id="ggEKf-x5aFvkU_zhfuhS-1" value="SPSO" style="shape=umlActor;verticalLabelPosition=bottom;verticalAlign=top;html=1;" vertex="1" parent="1">
                    <mxGeometry x="160" y="260" width="30" height="60" as="geometry"/>
                </mxCell>
            </root>
        </mxGraphModel>
    </diagram>
    <diagram id="LA7zpyK7m2dX0_MSES2g" name="View Printing History">
        <mxGraphModel dx="640" dy="512" grid="1" gridSize="10" guides="1" tooltips="1" connect="1" arrows="1" fold="1" page="1" pageScale="1" pageWidth="850" pageHeight="1100" math="0" shadow="0">
            <root>
                <mxCell id="0"/>
                <mxCell id="1" parent="0"/>
                <mxCell id="tpN-XLZkzl2ctsSw6Wa2-4" style="edgeStyle=none;html=1;exitX=1;exitY=0.5;exitDx=0;exitDy=0;" edge="1" parent="1" source="wEiMRBmT02-qAsrSFV_x-2">
                    <mxGeometry relative="1" as="geometry">
                        <mxPoint x="610" y="440" as="targetPoint"/>
                        <Array as="points">
                            <mxPoint x="580" y="560"/>
                            <mxPoint x="580" y="440"/>
                        </Array>
                    </mxGeometry>
                </mxCell>
                <mxCell id="wEiMRBmT02-qAsrSFV_x-2" value="View Students Printing History" style="ellipse;whiteSpace=wrap;html=1;" vertex="1" parent="1">
                    <mxGeometry x="330" y="520" width="140" height="80" as="geometry"/>
                </mxCell>
                <mxCell id="tpN-XLZkzl2ctsSw6Wa2-2" style="edgeStyle=none;html=1;exitX=1;exitY=0.5;exitDx=0;exitDy=0;entryX=0;entryY=0.3333333333333333;entryDx=0;entryDy=0;entryPerimeter=0;" edge="1" parent="1" source="wEiMRBmT02-qAsrSFV_x-4" target="tpN-XLZkzl2ctsSw6Wa2-1">
                    <mxGeometry relative="1" as="geometry"/>
                </mxCell>
                <mxCell id="wEiMRBmT02-qAsrSFV_x-4" value="View Personal Printing History" style="ellipse;whiteSpace=wrap;html=1;" vertex="1" parent="1">
                    <mxGeometry x="330" y="400" width="140" height="80" as="geometry"/>
                </mxCell>
                <mxCell id="tpN-XLZkzl2ctsSw6Wa2-3" style="edgeStyle=none;html=1;exitX=1;exitY=0.5;exitDx=0;exitDy=0;entryX=0;entryY=0.3333333333333333;entryDx=0;entryDy=0;entryPerimeter=0;" edge="1" parent="1" source="wEiMRBmT02-qAsrSFV_x-6" target="tpN-XLZkzl2ctsSw6Wa2-1">
                    <mxGeometry relative="1" as="geometry">
                        <Array as="points">
                            <mxPoint x="580" y="320"/>
                            <mxPoint x="580" y="440"/>
                        </Array>
                    </mxGeometry>
                </mxCell>
                <mxCell id="wEiMRBmT02-qAsrSFV_x-6" value="View printing pages left" style="ellipse;whiteSpace=wrap;html=1;" vertex="1" parent="1">
                    <mxGeometry x="330" y="280" width="140" height="80" as="geometry"/>
                </mxCell>
                <mxCell id="Cz6sEXB7OwgcUO0TxKRu-2" style="edgeStyle=none;html=1;exitX=1;exitY=0.3333333333333333;exitDx=0;exitDy=0;exitPerimeter=0;entryX=0;entryY=0.5;entryDx=0;entryDy=0;" edge="1" parent="1" source="pCH38H2U915eL8uuLMYD-1" target="wEiMRBmT02-qAsrSFV_x-4">
                    <mxGeometry relative="1" as="geometry"/>
                </mxCell>
                <mxCell id="pCH38H2U915eL8uuLMYD-1" value="Student" style="shape=umlActor;verticalLabelPosition=bottom;verticalAlign=top;html=1;" vertex="1" parent="1">
                    <mxGeometry x="160" y="420" width="30" height="60" as="geometry"/>
                </mxCell>
                <mxCell id="Cz6sEXB7OwgcUO0TxKRu-3" style="edgeStyle=none;html=1;exitX=1;exitY=0.3333333333333333;exitDx=0;exitDy=0;exitPerimeter=0;entryX=0;entryY=0.5;entryDx=0;entryDy=0;" edge="1" parent="1" source="Cz6sEXB7OwgcUO0TxKRu-1" target="wEiMRBmT02-qAsrSFV_x-2">
                    <mxGeometry relative="1" as="geometry"/>
                </mxCell>
                <mxCell id="Cz6sEXB7OwgcUO0TxKRu-1" value="SPSO" style="shape=umlActor;verticalLabelPosition=bottom;verticalAlign=top;html=1;" vertex="1" parent="1">
                    <mxGeometry x="160" y="540" width="30" height="60" as="geometry"/>
                </mxCell>
                <mxCell id="Vae54Zg5YxDntyrCt8jJ-1" value="extend" style="html=1;verticalAlign=bottom;endArrow=open;dashed=1;endSize=8;entryX=0.5;entryY=0;entryDx=0;entryDy=0;exitX=0.5;exitY=1;exitDx=0;exitDy=0;" edge="1" parent="1" source="wEiMRBmT02-qAsrSFV_x-4" target="wEiMRBmT02-qAsrSFV_x-2">
                    <mxGeometry relative="1" as="geometry">
                        <mxPoint x="240" y="390" as="sourcePoint"/>
                        <mxPoint x="280" y="420" as="targetPoint"/>
                        <mxPoint as="offset"/>
                    </mxGeometry>
                </mxCell>
                <mxCell id="Vae54Zg5YxDntyrCt8jJ-2" value="extend" style="html=1;verticalAlign=bottom;endArrow=open;dashed=1;endSize=8;entryX=0.5;entryY=0;entryDx=0;entryDy=0;exitX=0.5;exitY=1;exitDx=0;exitDy=0;" edge="1" parent="1" source="wEiMRBmT02-qAsrSFV_x-6" target="wEiMRBmT02-qAsrSFV_x-4">
                    <mxGeometry relative="1" as="geometry">
                        <mxPoint x="250" y="400" as="sourcePoint"/>
                        <mxPoint x="290" y="430" as="targetPoint"/>
                        <mxPoint as="offset"/>
                    </mxGeometry>
                </mxCell>
                <mxCell id="tpN-XLZkzl2ctsSw6Wa2-1" value="HCMUT_SSPS" style="shape=umlActor;verticalLabelPosition=bottom;verticalAlign=top;html=1;" vertex="1" parent="1">
                    <mxGeometry x="610" y="420" width="30" height="60" as="geometry"/>
                </mxCell>
                <mxCell id="tpN-XLZkzl2ctsSw6Wa2-5" value="" style="rounded=1;whiteSpace=wrap;html=1;fillColor=none;" vertex="1" parent="1">
                    <mxGeometry x="240" y="240" width="320" height="400" as="geometry"/>
                </mxCell>
            </root>
        </mxGraphModel>
    </diagram>
    <diagram id="Cktpfjqkq1hFkQc2M9Ki" name="Printer Management">
        <mxGraphModel dx="704" dy="563" grid="1" gridSize="10" guides="1" tooltips="1" connect="1" arrows="1" fold="1" page="1" pageScale="1" pageWidth="850" pageHeight="1100" math="0" shadow="0">
            <root>
                <mxCell id="0"/>
                <mxCell id="1" parent="0"/>
                <mxCell id="VPTxj6td9qfMDNgbOEDm-1" style="edgeStyle=none;html=1;exitX=1;exitY=0.3333333333333333;exitDx=0;exitDy=0;exitPerimeter=0;entryX=0;entryY=0.5;entryDx=0;entryDy=0;" edge="1" parent="1" source="DHJCYMmoFInNAbgBZxil-1" target="Y90gdVEhD7ovf6SpwxuB-4">
                    <mxGeometry relative="1" as="geometry"/>
                </mxCell>
                <mxCell id="DHJCYMmoFInNAbgBZxil-1" value="Actor" style="shape=umlActor;verticalLabelPosition=bottom;verticalAlign=top;html=1;outlineConnect=0;fillColor=none;" vertex="1" parent="1">
                    <mxGeometry x="120" y="260" width="30" height="60" as="geometry"/>
                </mxCell>
                <mxCell id="DHJCYMmoFInNAbgBZxil-2" value="Actor" style="shape=umlActor;verticalLabelPosition=bottom;verticalAlign=top;html=1;outlineConnect=0;fillColor=none;" vertex="1" parent="1">
                    <mxGeometry x="650" y="260" width="30" height="60" as="geometry"/>
                </mxCell>
                <mxCell id="Y90gdVEhD7ovf6SpwxuB-2" value="Add Printer" style="ellipse;whiteSpace=wrap;html=1;" vertex="1" parent="1">
                    <mxGeometry x="410" y="179.5" width="140" height="80" as="geometry"/>
                </mxCell>
                <mxCell id="Y90gdVEhD7ovf6SpwxuB-3" value="Enable/Disable Printer" style="ellipse;whiteSpace=wrap;html=1;" vertex="1" parent="1">
                    <mxGeometry x="410" y="299.5" width="140" height="80" as="geometry"/>
                </mxCell>
                <mxCell id="VPTxj6td9qfMDNgbOEDm-2" style="edgeStyle=none;html=1;exitX=1;exitY=0.5;exitDx=0;exitDy=0;entryX=0;entryY=0.3333333333333333;entryDx=0;entryDy=0;entryPerimeter=0;" edge="1" parent="1" source="Y90gdVEhD7ovf6SpwxuB-4" target="DHJCYMmoFInNAbgBZxil-2">
                    <mxGeometry relative="1" as="geometry"/>
                </mxCell>
                <mxCell id="Y90gdVEhD7ovf6SpwxuB-4" value="Manage Printers" style="ellipse;whiteSpace=wrap;html=1;" vertex="1" parent="1">
                    <mxGeometry x="250" y="239.5" width="140" height="80" as="geometry"/>
                </mxCell>
                <mxCell id="Y90gdVEhD7ovf6SpwxuB-5" value="extend" style="html=1;verticalAlign=bottom;endArrow=open;dashed=1;endSize=8;exitX=0;exitY=0.5;exitDx=0;exitDy=0;entryX=1;entryY=0;entryDx=0;entryDy=0;" edge="1" parent="1" source="Y90gdVEhD7ovf6SpwxuB-2" target="Y90gdVEhD7ovf6SpwxuB-4">
                    <mxGeometry relative="1" as="geometry">
                        <mxPoint x="400" y="229.5" as="sourcePoint"/>
                        <mxPoint x="240" y="229.5" as="targetPoint"/>
                        <mxPoint as="offset"/>
                    </mxGeometry>
                </mxCell>
                <mxCell id="Y90gdVEhD7ovf6SpwxuB-6" value="extend" style="html=1;verticalAlign=bottom;endArrow=open;dashed=1;endSize=8;exitX=0;exitY=0.5;exitDx=0;exitDy=0;" edge="1" parent="1" source="Y90gdVEhD7ovf6SpwxuB-3" target="Y90gdVEhD7ovf6SpwxuB-4">
                    <mxGeometry x="-0.0651" y="17" relative="1" as="geometry">
                        <mxPoint x="420" y="229.5" as="sourcePoint"/>
                        <mxPoint x="379.4974746830585" y="261.2157287525381" as="targetPoint"/>
                        <mxPoint y="-1" as="offset"/>
                    </mxGeometry>
                </mxCell>
                <mxCell id="VPTxj6td9qfMDNgbOEDm-3" value="" style="rounded=1;whiteSpace=wrap;html=1;fillColor=none;" vertex="1" parent="1">
                    <mxGeometry x="200" y="160" width="400" height="240" as="geometry"/>
                </mxCell>
            </root>
        </mxGraphModel>
    </diagram>
    <diagram id="JWiQQc6PKpD30k7qCoVg" name="Printing Report">
        <mxGraphModel dx="670" dy="536" grid="1" gridSize="10" guides="1" tooltips="1" connect="1" arrows="1" fold="1" page="1" pageScale="1" pageWidth="850" pageHeight="1100" math="0" shadow="0">
            <root>
                <mxCell id="0"/>
                <mxCell id="1" parent="0"/>
                <mxCell id="Rp8Gb6G3OBXuyxK5Jafg-2" style="edgeStyle=none;html=1;exitX=1;exitY=0.3333333333333333;exitDx=0;exitDy=0;exitPerimeter=0;entryX=0;entryY=0.5;entryDx=0;entryDy=0;" edge="1" parent="1" source="Rp8Gb6G3OBXuyxK5Jafg-61" target="Rp8Gb6G3OBXuyxK5Jafg-62">
                    <mxGeometry relative="1" as="geometry">
                        <Array as="points"/>
                    </mxGeometry>
                </mxCell>
                <mxCell id="Rp8Gb6G3OBXuyxK5Jafg-24" value="" style="endArrow=block;endSize=16;endFill=0;html=1;exitX=0.5;exitY=0;exitDx=0;exitDy=0;exitPerimeter=0;" edge="1" parent="1" source="Rp8Gb6G3OBXuyxK5Jafg-65">
                    <mxGeometry width="160" relative="1" as="geometry">
                        <mxPoint x="-470" y="170" as="sourcePoint"/>
                        <mxPoint x="95" y="490" as="targetPoint"/>
                        <Array as="points"/>
                    </mxGeometry>
                </mxCell>
                <mxCell id="Rp8Gb6G3OBXuyxK5Jafg-34" value="Generate Printing Report" style="ellipse;whiteSpace=wrap;html=1;" vertex="1" parent="1">
                    <mxGeometry x="210" y="520" width="140" height="80" as="geometry"/>
                </mxCell>
                <mxCell id="Rp8Gb6G3OBXuyxK5Jafg-46" value="Store Printing Report" style="ellipse;whiteSpace=wrap;html=1;" vertex="1" parent="1">
                    <mxGeometry x="210" y="640" width="140" height="80" as="geometry"/>
                </mxCell>
                <mxCell id="Rp8Gb6G3OBXuyxK5Jafg-50" value="include" style="html=1;verticalAlign=bottom;endArrow=open;dashed=1;endSize=8;exitX=0.5;exitY=1;exitDx=0;exitDy=0;entryX=0.5;entryY=0;entryDx=0;entryDy=0;" edge="1" parent="1" source="Rp8Gb6G3OBXuyxK5Jafg-34" target="Rp8Gb6G3OBXuyxK5Jafg-46">
                    <mxGeometry relative="1" as="geometry">
                        <mxPoint x="499.4974746830585" y="288.2842712474619" as="sourcePoint"/>
                        <mxPoint x="540" y="320" as="targetPoint"/>
                        <mxPoint as="offset"/>
                    </mxGeometry>
                </mxCell>
                <mxCell id="gL5E5FDxjQxUhBpdWuc2-1" style="edgeStyle=none;html=1;exitX=0;exitY=0.3333333333333333;exitDx=0;exitDy=0;exitPerimeter=0;entryX=1;entryY=0.5;entryDx=0;entryDy=0;" edge="1" parent="1" source="Rp8Gb6G3OBXuyxK5Jafg-51" target="Rp8Gb6G3OBXuyxK5Jafg-34">
                    <mxGeometry relative="1" as="geometry"/>
                </mxCell>
                <mxCell id="Rp8Gb6G3OBXuyxK5Jafg-51" value="HCMUT_SSPS" style="shape=umlActor;verticalLabelPosition=bottom;verticalAlign=top;html=1;" vertex="1" parent="1">
                    <mxGeometry x="480" y="540" width="30" height="60" as="geometry"/>
                </mxCell>
                <mxCell id="Rp8Gb6G3OBXuyxK5Jafg-61" value="SPSO" style="shape=umlActor;verticalLabelPosition=bottom;verticalAlign=top;html=1;" vertex="1" parent="1">
                    <mxGeometry x="80" y="420" width="30" height="60" as="geometry"/>
                </mxCell>
                <mxCell id="gL5E5FDxjQxUhBpdWuc2-2" style="edgeStyle=none;html=1;exitX=1;exitY=0.5;exitDx=0;exitDy=0;entryX=0;entryY=0.3333333333333333;entryDx=0;entryDy=0;entryPerimeter=0;" edge="1" parent="1" source="Rp8Gb6G3OBXuyxK5Jafg-62" target="Rp8Gb6G3OBXuyxK5Jafg-51">
                    <mxGeometry relative="1" as="geometry">
                        <Array as="points">
                            <mxPoint x="460" y="440"/>
                            <mxPoint x="460" y="560"/>
                        </Array>
                    </mxGeometry>
                </mxCell>
                <mxCell id="Rp8Gb6G3OBXuyxK5Jafg-62" value="View Printing Report" style="ellipse;whiteSpace=wrap;html=1;" vertex="1" parent="1">
                    <mxGeometry x="210" y="400" width="140" height="80" as="geometry"/>
                </mxCell>
                <mxCell id="Rp8Gb6G3OBXuyxK5Jafg-65" value="Administrator" style="shape=umlActor;verticalLabelPosition=bottom;verticalAlign=top;html=1;" vertex="1" parent="1">
                    <mxGeometry x="80" y="620" width="30" height="60" as="geometry"/>
                </mxCell>
                <mxCell id="gL5E5FDxjQxUhBpdWuc2-3" value="" style="rounded=1;whiteSpace=wrap;html=1;fillColor=none;" vertex="1" parent="1">
                    <mxGeometry x="160" y="360" width="240" height="400" as="geometry"/>
                </mxCell>
            </root>
        </mxGraphModel>
    </diagram>
    <diagram id="zhCEM1RqWJFsb_5kD75h" name="User Management">
        <mxGraphModel dx="782" dy="626" grid="1" gridSize="10" guides="1" tooltips="1" connect="1" arrows="1" fold="1" page="1" pageScale="1" pageWidth="850" pageHeight="1100" math="0" shadow="0">
            <root>
                <mxCell id="0"/>
                <mxCell id="1" parent="0"/>
                <mxCell id="5NNXwRCclrKZvQELrLhl-1" value="" style="rounded=1;whiteSpace=wrap;html=1;fillColor=none;" vertex="1" parent="1">
                    <mxGeometry x="120" y="440" width="480" height="520" as="geometry"/>
                </mxCell>
                <mxCell id="QZ3fkssVT2AaWLPh6sND-18" value="" style="edgeStyle=none;html=1;exitX=1;exitY=0.3333333333333333;exitDx=0;exitDy=0;exitPerimeter=0;" edge="1" parent="1" source="QZ3fkssVT2AaWLPh6sND-13" target="QZ3fkssVT2AaWLPh6sND-16">
                    <mxGeometry relative="1" as="geometry"/>
                </mxCell>
                <mxCell id="yhNQQTLYOljoA4L37SLX-2" style="edgeStyle=none;html=1;exitX=1;exitY=0.3333333333333333;exitDx=0;exitDy=0;exitPerimeter=0;" edge="1" parent="1" source="QZ3fkssVT2AaWLPh6sND-13" target="zHegrJLjwGVPDzzgAb6u-1">
                    <mxGeometry relative="1" as="geometry">
                        <Array as="points">
                            <mxPoint x="100" y="680"/>
                            <mxPoint x="100" y="800"/>
                        </Array>
                        <mxPoint x="180" y="680" as="sourcePoint"/>
                    </mxGeometry>
                </mxCell>
                <mxCell id="QZ3fkssVT2AaWLPh6sND-13" value="Administrator" style="shape=umlActor;verticalLabelPosition=bottom;verticalAlign=top;html=1;" vertex="1" parent="1">
                    <mxGeometry x="40" y="660" width="30" height="60" as="geometry"/>
                </mxCell>
                <mxCell id="iFZn6WGsgM-R16Jwp7MR-2" style="edgeStyle=none;html=1;exitX=1;exitY=0.5;exitDx=0;exitDy=0;entryX=0;entryY=0.3333333333333333;entryDx=0;entryDy=0;entryPerimeter=0;" edge="1" parent="1" source="QZ3fkssVT2AaWLPh6sND-16" target="iFZn6WGsgM-R16Jwp7MR-1">
                    <mxGeometry relative="1" as="geometry"/>
                </mxCell>
                <mxCell id="QZ3fkssVT2AaWLPh6sND-16" value="Manage student" style="ellipse;whiteSpace=wrap;html=1;" vertex="1" parent="1">
                    <mxGeometry x="290" y="640" width="140" height="80" as="geometry"/>
                </mxCell>
                <mxCell id="bfgzAlGMHGQF-uy9c5nR-1" value="View Student Account" style="ellipse;whiteSpace=wrap;html=1;" vertex="1" parent="1">
                    <mxGeometry x="130" y="480" width="140" height="80" as="geometry"/>
                </mxCell>
                <mxCell id="iFZn6WGsgM-R16Jwp7MR-1" value="HCMUT_SSPS" style="shape=umlActor;verticalLabelPosition=bottom;verticalAlign=top;html=1;" vertex="1" parent="1">
                    <mxGeometry x="650" y="660" width="30" height="60" as="geometry"/>
                </mxCell>
                <mxCell id="zHegrJLjwGVPDzzgAb6u-1" value="Manage SPSO" style="ellipse;whiteSpace=wrap;html=1;" vertex="1" parent="1">
                    <mxGeometry x="290" y="760" width="140" height="80" as="geometry"/>
                </mxCell>
                <mxCell id="wN9GXvzXId-n3E84HBXE-1" value="Add Student Account" style="ellipse;whiteSpace=wrap;html=1;" vertex="1" parent="1">
                    <mxGeometry x="290" y="480" width="140" height="80" as="geometry"/>
                </mxCell>
                <mxCell id="wN9GXvzXId-n3E84HBXE-2" value="Enable/Disable Student Account" style="ellipse;whiteSpace=wrap;html=1;" vertex="1" parent="1">
                    <mxGeometry x="450" y="480" width="140" height="80" as="geometry"/>
                </mxCell>
                <mxCell id="Wh2kjfykKZ0HVUeAhdrK-1" value="Privilege Allocations" style="ellipse;whiteSpace=wrap;html=1;" vertex="1" parent="1">
                    <mxGeometry x="450" y="840" width="140" height="80" as="geometry"/>
                </mxCell>
                <mxCell id="wokQxh6FzbJITrc616_K-1" value="include" style="html=1;verticalAlign=bottom;endArrow=open;dashed=1;endSize=8;exitX=0.5;exitY=0;exitDx=0;exitDy=0;entryX=0.5;entryY=1;entryDx=0;entryDy=0;" edge="1" parent="1" source="QZ3fkssVT2AaWLPh6sND-16" target="bfgzAlGMHGQF-uy9c5nR-1">
                    <mxGeometry relative="1" as="geometry">
                        <mxPoint x="-440.0000000000002" y="400" as="sourcePoint"/>
                        <mxPoint x="100" y="570" as="targetPoint"/>
                        <mxPoint as="offset"/>
                    </mxGeometry>
                </mxCell>
                <mxCell id="GUtyBZRU8Ya3TlyVqLj7-1" value="extend" style="html=1;verticalAlign=bottom;endArrow=open;dashed=1;endSize=8;entryX=0.5;entryY=0;entryDx=0;entryDy=0;exitX=0.5;exitY=1;exitDx=0;exitDy=0;" edge="1" parent="1" source="wN9GXvzXId-n3E84HBXE-2" target="QZ3fkssVT2AaWLPh6sND-16">
                    <mxGeometry relative="1" as="geometry">
                        <mxPoint x="679.9999999999998" y="610" as="sourcePoint"/>
                        <mxPoint x="519.9999999999998" y="610" as="targetPoint"/>
                        <mxPoint as="offset"/>
                    </mxGeometry>
                </mxCell>
                <mxCell id="GUtyBZRU8Ya3TlyVqLj7-2" value="extend" style="html=1;verticalAlign=bottom;endArrow=open;dashed=1;endSize=8;entryX=0.5;entryY=0;entryDx=0;entryDy=0;exitX=0.5;exitY=1;exitDx=0;exitDy=0;" edge="1" parent="1" source="wN9GXvzXId-n3E84HBXE-1" target="QZ3fkssVT2AaWLPh6sND-16">
                    <mxGeometry relative="1" as="geometry">
                        <mxPoint x="689.9999999999998" y="620" as="sourcePoint"/>
                        <mxPoint x="529.9999999999998" y="620" as="targetPoint"/>
                        <mxPoint as="offset"/>
                    </mxGeometry>
                </mxCell>
                <mxCell id="sPjHLPUOAnprO19aLi1M-1" value="extend" style="html=1;verticalAlign=bottom;endArrow=open;dashed=1;endSize=8;entryX=1;entryY=1;entryDx=0;entryDy=0;exitX=0;exitY=0;exitDx=0;exitDy=0;" edge="1" parent="1" source="Wh2kjfykKZ0HVUeAhdrK-1" target="zHegrJLjwGVPDzzgAb6u-1">
                    <mxGeometry relative="1" as="geometry">
                        <mxPoint x="530" y="570" as="sourcePoint"/>
                        <mxPoint x="370.0000000000002" y="650" as="targetPoint"/>
                        <mxPoint as="offset"/>
                    </mxGeometry>
                </mxCell>
            </root>
        </mxGraphModel>
    </diagram>
    <diagram id="p9iI2tJymb9ZQ8Qgw21X" name="Payment Management">
        <mxGraphModel dx="1789" dy="751" grid="1" gridSize="10" guides="1" tooltips="1" connect="1" arrows="1" fold="1" page="1" pageScale="1" pageWidth="850" pageHeight="1100" math="0" shadow="0">
            <root>
                <mxCell id="0"/>
                <mxCell id="1" parent="0"/>
                <mxCell id="xuh2Rvs4zBlmfu9vRihQ-2" style="edgeStyle=none;html=1;exitX=0.5;exitY=0.5;exitDx=0;exitDy=0;exitPerimeter=0;entryX=0;entryY=0.5;entryDx=0;entryDy=0;endArrow=classic;endFill=1;" edge="1" parent="1" source="5fkFmDWoJ8WAr26hG45f-2" target="xuh2Rvs4zBlmfu9vRihQ-1">
                    <mxGeometry relative="1" as="geometry"/>
                </mxCell>
                <mxCell id="5fkFmDWoJ8WAr26hG45f-2" value="Administrator" style="shape=umlActor;verticalLabelPosition=bottom;verticalAlign=top;html=1;" vertex="1" parent="1">
                    <mxGeometry x="-720" y="610" width="30" height="60" as="geometry"/>
                </mxCell>
                <mxCell id="5fkFmDWoJ8WAr26hG45f-3" value="BKPay" style="shape=umlActor;verticalLabelPosition=bottom;verticalAlign=top;html=1;" vertex="1" parent="1">
                    <mxGeometry x="-160" y="610" width="30" height="60" as="geometry"/>
                </mxCell>
                <mxCell id="xuh2Rvs4zBlmfu9vRihQ-3" style="edgeStyle=none;html=1;exitX=1;exitY=0.5;exitDx=0;exitDy=0;entryX=0.5;entryY=0.5;entryDx=0;entryDy=0;entryPerimeter=0;endArrow=classic;endFill=1;" edge="1" parent="1" source="xuh2Rvs4zBlmfu9vRihQ-1" target="5fkFmDWoJ8WAr26hG45f-3">
                    <mxGeometry relative="1" as="geometry"/>
                </mxCell>
                <mxCell id="xuh2Rvs4zBlmfu9vRihQ-1" value="Manage Payment" style="ellipse;whiteSpace=wrap;html=1;" vertex="1" parent="1">
                    <mxGeometry x="-490" y="600" width="140" height="80" as="geometry"/>
                </mxCell>
                <mxCell id="xuh2Rvs4zBlmfu9vRihQ-4" value="Calculate Revenue" style="ellipse;whiteSpace=wrap;html=1;" vertex="1" parent="1">
                    <mxGeometry x="-380" y="720" width="140" height="80" as="geometry"/>
                </mxCell>
                <mxCell id="xuh2Rvs4zBlmfu9vRihQ-5" value="View purchase history" style="ellipse;whiteSpace=wrap;html=1;" vertex="1" parent="1">
                    <mxGeometry x="-600" y="720" width="140" height="80" as="geometry"/>
                </mxCell>
                <mxCell id="ETjd6UdQePL-eI0B023G-3" value="extend" style="html=1;verticalAlign=bottom;endArrow=open;dashed=1;endSize=8;exitX=0;exitY=1;exitDx=0;exitDy=0;entryX=0.5;entryY=0;entryDx=0;entryDy=0;" edge="1" parent="1" source="xuh2Rvs4zBlmfu9vRihQ-1" target="xuh2Rvs4zBlmfu9vRihQ-5">
                    <mxGeometry relative="1" as="geometry">
                        <mxPoint x="-429.9999999999998" y="690" as="sourcePoint"/>
                        <mxPoint x="-589.9999999999998" y="690" as="targetPoint"/>
                        <mxPoint as="offset"/>
                    </mxGeometry>
                </mxCell>
                <mxCell id="ETjd6UdQePL-eI0B023G-5" value="" style="rounded=1;whiteSpace=wrap;html=1;fillColor=none;" vertex="1" parent="1">
                    <mxGeometry x="-640" y="570" width="440" height="260" as="geometry"/>
                </mxCell>
                <mxCell id="ETjd6UdQePL-eI0B023G-4" value="extend" style="html=1;verticalAlign=bottom;endArrow=open;dashed=1;endSize=8;exitX=1;exitY=1;exitDx=0;exitDy=0;entryX=0.5;entryY=0;entryDx=0;entryDy=0;" edge="1" parent="1" source="xuh2Rvs4zBlmfu9vRihQ-1" target="xuh2Rvs4zBlmfu9vRihQ-4">
                    <mxGeometry relative="1" as="geometry">
                        <mxPoint x="-289.9999999999998" y="700" as="sourcePoint"/>
                        <mxPoint x="-449.9999999999998" y="700" as="targetPoint"/>
                        <mxPoint as="offset"/>
                    </mxGeometry>
                </mxCell>
            </root>
        </mxGraphModel>
    </diagram>
    <diagram id="YEZLPWcIA2HaIgc3HWmH" name="Sequence">
        <mxGraphModel dx="1554" dy="563" grid="1" gridSize="10" guides="1" tooltips="1" connect="1" arrows="1" fold="1" page="1" pageScale="1" pageWidth="850" pageHeight="1100" math="0" shadow="0">
            <root>
                <mxCell id="0"/>
                <mxCell id="1" parent="0"/>
                <mxCell id="aQ1oEQ7nADfdi8sR7qUE-1" value="" style="shape=umlLifeline;participant=umlActor;perimeter=lifelinePerimeter;whiteSpace=wrap;html=1;container=1;collapsible=0;recursiveResize=0;verticalAlign=top;spacingTop=36;outlineConnect=0;" parent="1" vertex="1">
                    <mxGeometry x="110" y="40" width="20" height="600" as="geometry"/>
                </mxCell>
                <mxCell id="aQ1oEQ7nADfdi8sR7qUE-12" value="" style="html=1;points=[];perimeter=orthogonalPerimeter;" parent="aQ1oEQ7nADfdi8sR7qUE-1" vertex="1">
                    <mxGeometry x="5" y="80" width="10" height="400" as="geometry"/>
                </mxCell>
                <mxCell id="aQ1oEQ7nADfdi8sR7qUE-2" value=":View" style="shape=umlLifeline;perimeter=lifelinePerimeter;whiteSpace=wrap;html=1;container=1;collapsible=0;recursiveResize=0;outlineConnect=0;" parent="1" vertex="1">
                    <mxGeometry x="230" y="40" width="100" height="600" as="geometry"/>
                </mxCell>
                <mxCell id="aQ1oEQ7nADfdi8sR7qUE-3" value="" style="html=1;points=[];perimeter=orthogonalPerimeter;" parent="aQ1oEQ7nADfdi8sR7qUE-2" vertex="1">
                    <mxGeometry x="45" y="80" width="10" height="400" as="geometry"/>
                </mxCell>
                <mxCell id="aQ1oEQ7nADfdi8sR7qUE-4" value=":Object" style="shape=umlLifeline;perimeter=lifelinePerimeter;whiteSpace=wrap;html=1;container=1;collapsible=0;recursiveResize=0;outlineConnect=0;" parent="1" vertex="1">
                    <mxGeometry x="-250" y="40" width="100" height="520" as="geometry"/>
                </mxCell>
                <mxCell id="aQ1oEQ7nADfdi8sR7qUE-5" value="" style="html=1;points=[];perimeter=orthogonalPerimeter;" parent="aQ1oEQ7nADfdi8sR7qUE-4" vertex="1">
                    <mxGeometry x="45" y="80" width="10" height="400" as="geometry"/>
                </mxCell>
                <mxCell id="aQ1oEQ7nADfdi8sR7qUE-6" value=":Controller" style="shape=umlLifeline;perimeter=lifelinePerimeter;whiteSpace=wrap;html=1;container=1;collapsible=0;recursiveResize=0;outlineConnect=0;" parent="1" vertex="1">
                    <mxGeometry x="390" y="40" width="100" height="600" as="geometry"/>
                </mxCell>
                <mxCell id="aQ1oEQ7nADfdi8sR7qUE-7" value="" style="html=1;points=[];perimeter=orthogonalPerimeter;" parent="aQ1oEQ7nADfdi8sR7qUE-6" vertex="1">
                    <mxGeometry x="45" y="80" width="10" height="400" as="geometry"/>
                </mxCell>
                <mxCell id="aQ1oEQ7nADfdi8sR7qUE-8" value=":Model" style="shape=umlLifeline;perimeter=lifelinePerimeter;whiteSpace=wrap;html=1;container=1;collapsible=0;recursiveResize=0;outlineConnect=0;" parent="1" vertex="1">
                    <mxGeometry x="550" y="40" width="100" height="600" as="geometry"/>
                </mxCell>
                <mxCell id="aQ1oEQ7nADfdi8sR7qUE-9" value="" style="html=1;points=[];perimeter=orthogonalPerimeter;" parent="aQ1oEQ7nADfdi8sR7qUE-8" vertex="1">
                    <mxGeometry x="45" y="80" width="10" height="400" as="geometry"/>
                </mxCell>
                <mxCell id="aQ1oEQ7nADfdi8sR7qUE-10" value=":Object" style="shape=umlLifeline;perimeter=lifelinePerimeter;whiteSpace=wrap;html=1;container=1;collapsible=0;recursiveResize=0;outlineConnect=0;" parent="1" vertex="1">
                    <mxGeometry x="710" y="40" width="100" height="520" as="geometry"/>
                </mxCell>
                <mxCell id="aQ1oEQ7nADfdi8sR7qUE-11" value="" style="html=1;points=[];perimeter=orthogonalPerimeter;" parent="aQ1oEQ7nADfdi8sR7qUE-10" vertex="1">
                    <mxGeometry x="45" y="80" width="10" height="400" as="geometry"/>
                </mxCell>
                <mxCell id="aQ1oEQ7nADfdi8sR7qUE-13" value="Check file format" style="html=1;verticalAlign=bottom;endArrow=block;exitX=0.5;exitY=0.2;exitDx=0;exitDy=0;exitPerimeter=0;" parent="1" source="aQ1oEQ7nADfdi8sR7qUE-3" target="aQ1oEQ7nADfdi8sR7qUE-7" edge="1">
                    <mxGeometry width="80" relative="1" as="geometry">
                        <mxPoint x="-120" y="240" as="sourcePoint"/>
                        <mxPoint x="-40" y="240" as="targetPoint"/>
                    </mxGeometry>
                </mxCell>
                <mxCell id="aQ1oEQ7nADfdi8sR7qUE-15" value="return" style="html=1;verticalAlign=bottom;endArrow=open;dashed=1;endSize=8;" parent="1" edge="1">
                    <mxGeometry relative="1" as="geometry">
                        <mxPoint x="-40" y="280" as="sourcePoint"/>
                        <mxPoint x="-120" y="280" as="targetPoint"/>
                    </mxGeometry>
                </mxCell>
                <mxCell id="aQ1oEQ7nADfdi8sR7qUE-16" value="Upload file" style="html=1;verticalAlign=bottom;endArrow=block;" parent="1" target="aQ1oEQ7nADfdi8sR7qUE-3" edge="1">
                    <mxGeometry width="80" relative="1" as="geometry">
                        <mxPoint x="120" y="160" as="sourcePoint"/>
                        <mxPoint x="200" y="160" as="targetPoint"/>
                    </mxGeometry>
                </mxCell>
                <mxCell id="aQ1oEQ7nADfdi8sR7qUE-18" value="Alt" style="shape=umlFrame;whiteSpace=wrap;html=1;width=120;height=30;boundedLbl=1;verticalAlign=middle;align=left;spacingLeft=5;" parent="1" vertex="1">
                    <mxGeometry x="80" y="240" width="560" height="320" as="geometry"/>
                </mxCell>
                <mxCell id="aQ1oEQ7nADfdi8sR7qUE-19" value="" style="endArrow=none;startArrow=none;endFill=0;startFill=0;endSize=8;html=1;verticalAlign=bottom;dashed=1;labelBackgroundColor=none;dashPattern=10 10;exitX=-0.005;exitY=0.501;exitDx=0;exitDy=0;exitPerimeter=0;entryX=0.999;entryY=0.496;entryDx=0;entryDy=0;entryPerimeter=0;" parent="1" source="aQ1oEQ7nADfdi8sR7qUE-18" target="aQ1oEQ7nADfdi8sR7qUE-18" edge="1">
                    <mxGeometry width="160" relative="1" as="geometry">
                        <mxPoint x="260" y="340" as="sourcePoint"/>
                        <mxPoint x="420" y="340" as="targetPoint"/>
                    </mxGeometry>
                </mxCell>
                <mxCell id="aQ1oEQ7nADfdi8sR7qUE-22" value="Query Insert INTO database" style="html=1;verticalAlign=bottom;endArrow=block;exitX=0.643;exitY=0.125;exitDx=0;exitDy=0;exitPerimeter=0;" parent="1" source="aQ1oEQ7nADfdi8sR7qUE-18" target="aQ1oEQ7nADfdi8sR7qUE-8" edge="1">
                    <mxGeometry width="80" relative="1" as="geometry">
                        <mxPoint x="340" y="220" as="sourcePoint"/>
                        <mxPoint x="445" y="210" as="targetPoint"/>
                    </mxGeometry>
                </mxCell>
                <mxCell id="aQ1oEQ7nADfdi8sR7qUE-23" value="Return success insert" style="html=1;verticalAlign=bottom;endArrow=open;dashed=1;endSize=8;exitX=0.929;exitY=0.25;exitDx=0;exitDy=0;exitPerimeter=0;" parent="1" source="aQ1oEQ7nADfdi8sR7qUE-18" target="aQ1oEQ7nADfdi8sR7qUE-6" edge="1">
                    <mxGeometry relative="1" as="geometry">
                        <mxPoint x="-30" y="290" as="sourcePoint"/>
                        <mxPoint x="-110" y="290" as="targetPoint"/>
                    </mxGeometry>
                </mxCell>
                <mxCell id="aQ1oEQ7nADfdi8sR7qUE-24" value="Display Upload Success" style="html=1;verticalAlign=bottom;endArrow=open;dashed=1;endSize=8;exitX=0.643;exitY=0.375;exitDx=0;exitDy=0;exitPerimeter=0;" parent="1" source="aQ1oEQ7nADfdi8sR7qUE-18" target="aQ1oEQ7nADfdi8sR7qUE-2" edge="1">
                    <mxGeometry relative="1" as="geometry">
                        <mxPoint x="610.2399999999998" y="330" as="sourcePoint"/>
                        <mxPoint x="449.81034482758605" y="330" as="targetPoint"/>
                    </mxGeometry>
                </mxCell>
                <mxCell id="aQ1oEQ7nADfdi8sR7qUE-25" value="Display Wrong file format" style="html=1;verticalAlign=bottom;endArrow=open;dashed=1;endSize=8;exitX=0.643;exitY=0.625;exitDx=0;exitDy=0;exitPerimeter=0;" parent="1" source="aQ1oEQ7nADfdi8sR7qUE-18" target="aQ1oEQ7nADfdi8sR7qUE-2" edge="1">
                    <mxGeometry relative="1" as="geometry">
                        <mxPoint x="450.0799999999999" y="370" as="sourcePoint"/>
                        <mxPoint x="289.59090909090946" y="370" as="targetPoint"/>
                    </mxGeometry>
                </mxCell>
                <mxCell id="MLixlBGNKfuvp6KU7mtK-23" value="" style="shape=ellipse;container=1;horizontal=1;horizontalStack=0;resizeParent=1;resizeParentMax=0;resizeLast=0;html=1;dashed=0;collapsible=0;" vertex="1" parent="1">
                    <mxGeometry x="-790" y="200" width="180" height="120" as="geometry"/>
                </mxCell>
                <mxCell id="MLixlBGNKfuvp6KU7mtK-24" value="UseCase1" style="html=1;strokeColor=none;fillColor=none;align=center;verticalAlign=middle;rotatable=0;" vertex="1" parent="MLixlBGNKfuvp6KU7mtK-23">
                    <mxGeometry width="180" height="30" as="geometry"/>
                </mxCell>
                <mxCell id="MLixlBGNKfuvp6KU7mtK-25" value="" style="line;strokeWidth=1;fillColor=none;rotatable=0;labelPosition=right;points=[];portConstraint=eastwest;dashed=0;resizeWidth=1;" vertex="1" parent="MLixlBGNKfuvp6KU7mtK-23">
                    <mxGeometry x="9" y="30" width="162" height="10" as="geometry"/>
                </mxCell>
                <mxCell id="MLixlBGNKfuvp6KU7mtK-26" value="extension points" style="text;html=1;align=center;verticalAlign=middle;rotatable=0;fillColor=none;strokeColor=none;" vertex="1" parent="MLixlBGNKfuvp6KU7mtK-23">
                    <mxGeometry y="40" width="180" height="30" as="geometry"/>
                </mxCell>
                <mxCell id="MLixlBGNKfuvp6KU7mtK-27" value="Extension point 1" style="text;html=1;align=left;verticalAlign=middle;rotatable=0;spacingLeft=25;fillColor=none;strokeColor=none;" vertex="1" parent="MLixlBGNKfuvp6KU7mtK-23">
                    <mxGeometry y="70" width="180" height="30" as="geometry"/>
                </mxCell>
                <mxCell id="MLixlBGNKfuvp6KU7mtK-28" value="include" style="html=1;verticalAlign=bottom;endArrow=open;dashed=1;endSize=8;" edge="1" parent="1">
                    <mxGeometry relative="1" as="geometry">
                        <mxPoint x="-800" y="400" as="sourcePoint"/>
                        <mxPoint x="-640" y="400" as="targetPoint"/>
                        <mxPoint as="offset"/>
                    </mxGeometry>
                </mxCell>
                <mxCell id="MLixlBGNKfuvp6KU7mtK-29" style="edgeStyle=none;html=1;" edge="1" parent="1">
                    <mxGeometry relative="1" as="geometry">
                        <mxPoint x="-800" y="440" as="sourcePoint"/>
                        <mxPoint x="-640" y="440" as="targetPoint"/>
                    </mxGeometry>
                </mxCell>
                <mxCell id="MLixlBGNKfuvp6KU7mtK-30" value="Use case" style="ellipse;whiteSpace=wrap;html=1;" vertex="1" parent="1">
                    <mxGeometry x="-770" y="80" width="140" height="80" as="geometry"/>
                </mxCell>
                <mxCell id="MLixlBGNKfuvp6KU7mtK-31" value="extend" style="html=1;verticalAlign=bottom;endArrow=open;dashed=1;endSize=8;" edge="1" parent="1">
                    <mxGeometry relative="1" as="geometry">
                        <mxPoint x="-640" y="360" as="sourcePoint"/>
                        <mxPoint x="-800" y="360" as="targetPoint"/>
                        <mxPoint as="offset"/>
                    </mxGeometry>
                </mxCell>
                <mxCell id="MLixlBGNKfuvp6KU7mtK-32" value="Actor" style="shape=umlActor;verticalLabelPosition=bottom;verticalAlign=top;html=1;" vertex="1" parent="1">
                    <mxGeometry x="-560" y="220" width="30" height="60" as="geometry"/>
                </mxCell>
                <mxCell id="MLixlBGNKfuvp6KU7mtK-33" value="" style="endArrow=block;endSize=16;endFill=0;html=1;exitX=0;exitY=0.3333333333333333;exitDx=0;exitDy=0;exitPerimeter=0;entryX=0;entryY=1;entryDx=0;entryDy=0;entryPerimeter=0;" edge="1" parent="1">
                    <mxGeometry width="160" relative="1" as="geometry">
                        <mxPoint x="-600" y="480" as="sourcePoint"/>
                        <mxPoint x="-600" y="360" as="targetPoint"/>
                    </mxGeometry>
                </mxCell>
            </root>
        </mxGraphModel>
    </diagram>
</mxfile>